<svg width="73" height="37" viewBox="0 0 73 37" fill="none" xmlns="http://www.w3.org/2000/svg">
<path d="M10.582 8.24316L16.6992 10.8799V11.9873L9.43066 8.65625V7.80371L16.6992 4.48145V5.58887L10.582 8.24316ZM19.1865 15.0986H18.2285L23.5723 1.20312H24.5215L19.1865 15.0986ZM34.1455 9.3418C34.1455 10.8242 33.8174 12.002 33.1611 12.875C32.5049 13.7422 31.623 14.1758 30.5156 14.1758C29.1914 14.1758 28.1895 13.6836 27.5098 12.6992L27.4658 14H26.4814V0.5H27.5273V5.87012C28.1953 4.83301 29.1855 4.31445 30.498 4.31445C31.623 4.31445 32.5107 4.74512 33.1611 5.60645C33.8174 6.46191 34.1455 7.6543 34.1455 9.18359V9.3418ZM33.0908 9.15723C33.0908 7.90332 32.8477 6.93652 32.3613 6.25684C31.875 5.57129 31.1895 5.22852 30.3047 5.22852C29.6309 5.22852 29.0596 5.39551 28.5908 5.72949C28.1221 6.05762 27.7676 6.54102 27.5273 7.17969V11.4688C28.0547 12.6641 28.9863 13.2617 30.3223 13.2617C31.1895 13.2617 31.8662 12.9189 32.3525 12.2334C32.8447 11.5479 33.0908 10.5225 33.0908 9.15723ZM35.8945 9.10449C35.8945 8.19043 36.0703 7.36719 36.4219 6.63477C36.7793 5.90234 37.2803 5.33398 37.9248 4.92969C38.5752 4.51953 39.3105 4.31445 40.1309 4.31445C41.3965 4.31445 42.4219 4.75977 43.207 5.65039C43.9922 6.53516 44.3848 7.70996 44.3848 9.1748V9.39453C44.3848 10.3145 44.2061 11.1436 43.8486 11.8818C43.4971 12.6143 42.999 13.1797 42.3545 13.5781C41.71 13.9766 40.9746 14.1758 40.1484 14.1758C38.8887 14.1758 37.8633 13.7334 37.0723 12.8486C36.2871 11.958 35.8945 10.7803 35.8945 9.31543V9.10449ZM36.9492 9.39453C36.9492 10.5312 37.2422 11.4658 37.8281 12.1982C38.4199 12.9248 39.1934 13.2881 40.1484 13.2881C41.0977 13.2881 41.8652 12.9248 42.4512 12.1982C43.043 11.4658 43.3389 10.502 43.3389 9.30664V9.10449C43.3389 8.37793 43.2041 7.71289 42.9346 7.10938C42.665 6.50586 42.2871 6.04004 41.8008 5.71191C41.3145 5.37793 40.7578 5.21094 40.1309 5.21094C39.1934 5.21094 38.4287 5.58008 37.8369 6.31836C37.2451 7.05078 36.9492 8.01172 36.9492 9.20117V9.39453ZM46.1426 9.15723C46.1426 7.68066 46.4707 6.50586 47.127 5.63281C47.7891 4.75391 48.6855 4.31445 49.8164 4.31445C51.0996 4.31445 52.0781 4.82129 52.752 5.83496V0.5H53.7979V14H52.8135L52.7695 12.7344C52.0957 13.6953 51.1055 14.1758 49.7988 14.1758C48.7031 14.1758 47.8184 13.7363 47.1445 12.8574C46.4766 11.9727 46.1426 10.7803 46.1426 9.28027V9.15723ZM47.2061 9.3418C47.2061 10.5547 47.4492 11.5127 47.9355 12.2158C48.4219 12.9131 49.1074 13.2617 49.9922 13.2617C51.2871 13.2617 52.207 12.6904 52.752 11.5479V7.08301C52.207 5.84668 51.293 5.22852 50.0098 5.22852C49.125 5.22852 48.4365 5.57715 47.9443 6.27441C47.4521 6.96582 47.2061 7.98828 47.2061 9.3418ZM59.5811 12.4883L62.3584 4.49023H63.4922L59.4316 15.6172L59.2207 16.1094C58.6992 17.2637 57.8936 17.8408 56.8037 17.8408C56.5518 17.8408 56.2822 17.7998 55.9951 17.7178L55.9863 16.8477L56.5312 16.9004C57.0469 16.9004 57.4629 16.7715 57.7793 16.5137C58.1016 16.2617 58.374 15.8252 58.5967 15.2041L59.0625 13.9209L55.4766 4.49023H56.6279L59.5811 12.4883ZM71.0947 8.20801L64.8457 5.54492V4.46387L72.2725 7.78613V8.63867L64.8457 11.9697V10.8799L71.0947 8.20801ZM1.82812 29.2432L7.94531 31.8799V32.9873L0.676758 29.6562V28.8037L7.94531 25.4814V26.5889L1.82812 29.2432ZM10.4326 36.0986H9.47461L14.8184 22.2031H15.7676L10.4326 36.0986ZM18.7822 27.0986C19.1279 26.5303 19.5703 26.0908 20.1094 25.7803C20.6484 25.4697 21.2373 25.3145 21.876 25.3145C22.8955 25.3145 23.6543 25.6016 24.1523 26.1758C24.6504 26.75 24.9023 27.6113 24.9082 28.7598V35H23.8623V28.751C23.8564 27.9014 23.6748 27.2686 23.3174 26.8525C22.9658 26.4365 22.4004 26.2285 21.6211 26.2285C20.9707 26.2285 20.3936 26.4336 19.8896 26.8438C19.3916 27.248 19.0225 27.7959 18.7822 28.4873V35H17.7363V21.5H18.7822V27.0986ZM29.25 23.0557V25.4902H31.2188V26.3516H29.25V32.6885C29.25 33.2158 29.3438 33.6084 29.5312 33.8662C29.7246 34.124 30.0439 34.2529 30.4893 34.2529C30.665 34.2529 30.9492 34.2236 31.3418 34.165L31.3857 35.0264C31.1104 35.126 30.7354 35.1758 30.2607 35.1758C29.54 35.1758 29.0156 34.9678 28.6875 34.5518C28.3594 34.1299 28.1953 33.5117 28.1953 32.6973V26.3516H26.4463V25.4902H28.1953V23.0557H29.25ZM34.3564 25.4902L34.3916 27.0371C34.7432 26.4629 35.1826 26.0322 35.71 25.7451C36.2373 25.458 36.8232 25.3145 37.4678 25.3145C38.9678 25.3145 39.9199 25.9297 40.3242 27.1602C40.6641 26.5684 41.1182 26.1143 41.6865 25.7979C42.2549 25.4756 42.8818 25.3145 43.5674 25.3145C45.6064 25.3145 46.6465 26.4277 46.6875 28.6543V35H45.6328V28.7334C45.627 27.8838 45.4424 27.2539 45.0791 26.8438C44.7217 26.4336 44.1357 26.2285 43.3213 26.2285C42.5654 26.2402 41.9268 26.4863 41.4053 26.9668C40.8838 27.4414 40.5938 28.0215 40.5352 28.707V35H39.4805V28.6543C39.4746 27.8398 39.2812 27.2334 38.9004 26.835C38.5254 26.4307 37.9453 26.2285 37.1602 26.2285C36.498 26.2285 35.9297 26.4189 35.4551 26.7998C34.9805 27.1748 34.6289 27.7344 34.4004 28.4785V35H33.3457V25.4902H34.3564ZM50.5371 35H49.4824V21.5H50.5371V35ZM59.3701 29.208L53.1211 26.5449V25.4639L60.5479 28.7861V29.6387L53.1211 32.9697V31.8799L59.3701 29.208Z" fill="black"/>
</svg>
