<svg width="130" height="189" viewBox="0 0 130 189" fill="none" xmlns="http://www.w3.org/2000/svg">
<path d="M2.59741 128.169C7.27274 128.169 10.8658 128.039 13.3766 127.779C15.8875 127.519 17.7057 126.87 18.8312 125.831C20.0433 124.706 20.736 123.104 20.9091 121.026C21.0823 118.255 21.1689 115.398 21.1689 112.454V57.6492H47.1429V103.623C47.1429 111.935 47.0131 118.299 46.7533 122.714C46.4936 127.13 45.9308 130.809 45.065 133.753C44.1126 136.957 42.6841 139.468 40.7793 141.286C38.9611 143.017 36.407 144.316 33.1169 145.182C30.0866 145.961 26.2771 146.481 21.6883 146.74C17.1862 146.913 10.8225 147 2.59741 147V128.169Z" fill="black"/>
<path d="M2.59741 128.169V127.454H1.88251V128.169H2.59741ZM13.3766 127.779L13.4502 128.49L13.4502 128.49L13.3766 127.779ZM18.8312 125.831L19.3161 126.356L19.3177 126.355L18.8312 125.831ZM20.9091 121.026L21.6216 121.085L21.6222 121.078L21.6226 121.071L20.9091 121.026ZM21.1689 57.6492V56.9343H20.454V57.6492H21.1689ZM47.1429 57.6492H47.8578V56.9343H47.1429V57.6492ZM45.065 133.753L45.7503 133.957L45.7509 133.955L45.065 133.753ZM40.7793 141.286L41.2723 141.803L41.2729 141.803L40.7793 141.286ZM33.1169 145.182L33.295 145.874L33.2989 145.873L33.1169 145.182ZM21.6883 146.74L21.7158 147.455L21.7288 147.454L21.6883 146.74ZM2.59741 147H1.88251V147.715H2.59741V147ZM2.59741 128.884C7.2804 128.884 10.9025 128.754 13.4502 128.49L13.3031 127.068C10.8291 127.324 7.26508 127.454 2.59741 127.454V128.884ZM13.4502 128.49C16.0236 128.224 18.0245 127.549 19.3161 126.356L18.3463 125.306C17.3868 126.192 15.7513 126.815 13.3031 127.068L13.4502 128.49ZM19.3177 126.355C20.6919 125.079 21.4376 123.293 21.6216 121.085L20.1967 120.967C20.0343 122.915 19.3948 124.332 18.3447 125.307L19.3177 126.355ZM21.6226 121.071C21.7968 118.284 21.8838 115.412 21.8838 112.454H20.454C20.454 115.384 20.3678 118.226 20.1956 120.981L21.6226 121.071ZM21.8838 112.454V57.6492H20.454V112.454H21.8838ZM21.1689 58.3641H47.1429V56.9343H21.1689V58.3641ZM46.428 57.6492V103.623H47.8578V57.6492H46.428ZM46.428 103.623C46.428 111.931 46.2982 118.278 46.0397 122.672L47.467 122.756C47.728 118.319 47.8578 111.939 47.8578 103.623H46.428ZM46.0397 122.672C45.7818 127.055 45.2246 130.677 44.3792 133.552L45.7509 133.955C46.637 130.942 47.2053 127.204 47.467 122.756L46.0397 122.672ZM44.3798 133.549C43.4535 136.665 42.0792 139.057 40.2857 140.769L41.2729 141.803C43.2889 139.878 44.7718 137.248 45.7503 133.957L44.3798 133.549ZM40.2863 140.768C38.581 142.392 36.148 143.645 32.935 144.49L33.2989 145.873C36.666 144.987 39.3412 143.643 41.2723 141.803L40.2863 140.768ZM32.9389 144.489C29.9693 145.253 26.2097 145.768 21.6479 146.027L21.7288 147.454C26.3445 147.193 30.204 146.669 33.295 145.874L32.9389 144.489ZM21.6609 146.026C17.1724 146.199 10.8195 146.285 2.59741 146.285V147.715C10.8256 147.715 17.1999 147.628 21.7158 147.455L21.6609 146.026ZM3.31231 147V128.169H1.88251V147H3.31231Z" fill="black"/>
<path d="M73.9029 147.987C59.9045 147.987 48.9683 144.225 41.0942 136.701C33.2201 129.177 29.283 118.547 29.283 104.811C29.283 95.4494 31.1203 87.1816 34.7949 80.0074C38.557 72.8333 43.8501 67.3214 50.6743 63.4718C57.4985 59.5348 65.3726 57.5663 74.2966 57.5663C81.5582 57.5663 88.5574 58.8786 95.2941 61.5033L91.7508 78.4326C85.8015 75.7204 80.0272 74.3643 74.4278 74.3643C66.4662 74.3643 60.167 76.989 55.53 82.2384C50.893 87.4003 48.5745 94.312 48.5745 102.974C48.5745 111.81 51.0243 118.678 55.9237 123.577C60.8231 128.477 67.6036 130.927 76.2651 130.927C81.9519 130.927 87.4638 130.008 92.8007 128.171L95.6878 144.312C89.3011 146.762 82.0394 147.987 73.9029 147.987Z" fill="black"/>
<path d="M41.0942 136.701L41.5932 136.179L41.5932 136.179L41.0942 136.701ZM34.7949 80.0074L34.1551 79.6719L34.1519 79.6781L34.7949 80.0074ZM50.6743 63.4718L51.0293 64.1011L51.0353 64.0976L50.6743 63.4718ZM95.2941 61.5033L96.0012 61.6513L96.1266 61.0523L95.5564 60.8302L95.2941 61.5033ZM91.7508 78.4326L91.4511 79.0899L92.2729 79.4646L92.4579 78.5806L91.7508 78.4326ZM55.53 82.2384L56.0674 82.7212L56.0714 82.7167L55.53 82.2384ZM55.9237 123.577L56.4345 123.067L56.4345 123.067L55.9237 123.577ZM92.8007 128.171L93.5118 128.043L93.3633 127.213L92.5655 127.488L92.8007 128.171ZM95.6878 144.312L95.9466 144.987L96.5041 144.773L96.399 144.185L95.6878 144.312ZM73.9029 147.265C60.0353 147.265 49.2978 143.541 41.5932 136.179L40.5951 137.223C48.6388 144.909 59.7737 148.709 73.9029 148.709V147.265ZM41.5932 136.179C33.897 128.824 30.0054 118.404 30.0054 104.811H28.5606C28.5606 118.689 32.5431 129.529 40.5951 137.223L41.5932 136.179ZM30.0054 104.811C30.0054 95.5454 31.8233 87.3937 35.4379 80.3368L34.1519 79.6781C30.4173 86.9695 28.5606 95.3534 28.5606 104.811H30.0054ZM35.4347 80.3429C39.1344 73.2876 44.3306 67.8798 51.0292 64.101L50.3194 62.8426C43.3696 66.763 37.9795 72.3789 34.1551 79.6719L35.4347 80.3429ZM51.0353 64.0976C57.7358 60.2319 65.4822 58.2887 74.2966 58.2887V56.8439C65.263 56.8439 57.2612 58.8377 50.3133 62.8461L51.0353 64.0976ZM74.2966 58.2887C81.4689 58.2887 88.3791 59.5845 95.0319 62.1764L95.5564 60.8302C88.7357 58.1728 81.6475 56.8439 74.2966 56.8439V58.2887ZM94.5871 61.3553L91.0437 78.2846L92.4579 78.5806L96.0012 61.6513L94.5871 61.3553ZM92.0505 77.7753C86.0227 75.0273 80.1465 73.6419 74.4278 73.6419V75.0867C79.9078 75.0867 85.5803 76.4135 91.4511 79.0899L92.0505 77.7753ZM74.4278 73.6419C66.2905 73.6419 59.7822 76.3334 54.9886 81.7602L56.0714 82.7167C60.5517 77.6446 66.6419 75.0867 74.4278 75.0867V73.6419ZM54.9926 81.7557C50.209 87.0808 47.8521 94.1798 47.8521 102.974H49.297C49.297 94.4442 51.5771 87.7198 56.0674 82.7212L54.9926 81.7557ZM47.8521 102.974C47.8521 111.946 50.3433 119.019 55.4129 124.088L56.4345 123.067C51.7052 118.337 49.297 111.674 49.297 102.974H47.8521ZM55.4129 124.088C60.4798 129.155 67.4626 131.649 76.2651 131.649V130.204C67.7446 130.204 61.1665 127.798 56.4345 123.067L55.4129 124.088ZM76.2651 131.649C82.0313 131.649 87.6227 130.717 93.0358 128.854L92.5655 127.488C87.3049 129.299 81.8725 130.204 76.2651 130.204V131.649ZM92.0896 128.298L94.9767 144.44L96.399 144.185L93.5118 128.043L92.0896 128.298ZM95.4291 143.638C89.139 146.051 81.9674 147.265 73.9029 147.265V148.709C82.1115 148.709 89.4632 147.474 95.9466 144.987L95.4291 143.638Z" fill="black"/>
</svg>
