<svg width="94" height="91" viewBox="0 0 94 91" fill="none" xmlns="http://www.w3.org/2000/svg">
<path d="M0.597412 71.1688C5.27274 71.1688 8.86582 71.0389 11.3767 70.7792C13.8875 70.5194 15.7057 69.8701 16.8312 68.8311C18.0433 67.7056 18.736 66.1038 18.9091 64.0259C19.0823 61.2554 19.1689 58.3982 19.1689 55.4545V0.649188H45.1429V46.6233C45.1429 54.935 45.0131 61.2986 44.7533 65.7142C44.4936 70.1298 43.9308 73.8095 43.065 76.7532C42.1126 79.9567 40.6841 82.4675 38.7793 84.2857C36.9611 86.0173 34.407 87.316 31.1169 88.1818C28.0866 88.961 24.2771 89.4805 19.6884 89.7402C15.1862 89.9134 8.82253 90 0.597412 90V71.1688Z" fill="black"/>
<path d="M71.9029 90.987C57.9045 90.987 46.9683 87.225 39.0942 79.7008C31.2201 72.1767 27.283 61.5467 27.283 47.8108C27.283 38.4494 29.1203 30.1816 32.7949 23.0074C36.557 15.8332 41.8501 10.3214 48.6743 6.47182C55.4985 2.53478 63.3726 0.566254 72.2966 0.566254C79.5582 0.566254 86.5574 1.8786 93.2942 4.5033L89.7508 21.4326C83.8015 18.7204 78.0272 17.3643 72.4278 17.3643C64.4662 17.3643 58.167 19.989 53.53 25.2384C48.893 30.4003 46.5746 37.312 46.5746 45.9735C46.5746 54.81 49.0243 61.6779 53.9237 66.5774C58.8231 71.4768 65.6036 73.9265 74.2651 73.9265C79.9519 73.9265 85.4638 73.0079 90.8007 71.1706L93.6879 87.3125C87.3011 89.7622 80.0394 90.987 71.9029 90.987Z" fill="black"/>
</svg>
