<svg width="66" height="39" viewBox="0 0 66 39" fill="none" xmlns="http://www.w3.org/2000/svg">
<path d="M1.82812 8.24316L7.94531 10.8799V11.9873L0.676758 8.65625V7.80371L7.94531 4.48145V5.58887L1.82812 8.24316ZM11.6279 6.09863C11.9736 5.53027 12.416 5.09082 12.9551 4.78027C13.4941 4.46973 14.083 4.31445 14.7217 4.31445C15.7412 4.31445 16.5 4.60156 16.998 5.17578C17.4961 5.75 17.748 6.61133 17.7539 7.75977V14H16.708V7.75098C16.7021 6.90137 16.5205 6.26855 16.1631 5.85254C15.8115 5.43652 15.2461 5.22852 14.4668 5.22852C13.8164 5.22852 13.2393 5.43359 12.7354 5.84375C12.2373 6.24805 11.8682 6.7959 11.6279 7.4873V14H10.582V0.5H11.6279V6.09863ZM22.0957 2.05566V4.49023H24.0645V5.35156H22.0957V11.6885C22.0957 12.2158 22.1895 12.6084 22.377 12.8662C22.5703 13.124 22.8896 13.2529 23.335 13.2529C23.5107 13.2529 23.7949 13.2236 24.1875 13.165L24.2314 14.0264C23.9561 14.126 23.5811 14.1758 23.1064 14.1758C22.3857 14.1758 21.8613 13.9678 21.5332 13.5518C21.2051 13.1299 21.041 12.5117 21.041 11.6973V5.35156H19.292V4.49023H21.041V2.05566H22.0957ZM27.2021 4.49023L27.2373 6.03711C27.5889 5.46289 28.0283 5.03223 28.5557 4.74512C29.083 4.45801 29.6689 4.31445 30.3135 4.31445C31.8135 4.31445 32.7656 4.92969 33.1699 6.16016C33.5098 5.56836 33.9639 5.11426 34.5322 4.79785C35.1006 4.47559 35.7275 4.31445 36.4131 4.31445C38.4521 4.31445 39.4922 5.42773 39.5332 7.6543V14H38.4785V7.7334C38.4727 6.88379 38.2881 6.25391 37.9248 5.84375C37.5674 5.43359 36.9814 5.22852 36.167 5.22852C35.4111 5.24023 34.7725 5.48633 34.251 5.9668C33.7295 6.44141 33.4395 7.02148 33.3809 7.70703V14H32.3262V7.6543C32.3203 6.83984 32.127 6.2334 31.7461 5.83496C31.3711 5.43066 30.791 5.22852 30.0059 5.22852C29.3438 5.22852 28.7754 5.41895 28.3008 5.7998C27.8262 6.1748 27.4746 6.73438 27.2461 7.47852V14H26.1914V4.49023H27.2021ZM43.3828 14H42.3281V0.5H43.3828V14ZM52.2158 8.20801L45.9668 5.54492V4.46387L53.3936 7.78613V8.63867L45.9668 11.9697V10.8799L52.2158 8.20801ZM10.582 29.2432L16.6992 31.8799V32.9873L9.43066 29.6562V28.8037L16.6992 25.4814V26.5889L10.582 29.2432ZM26.9912 30.3418C26.9912 31.8242 26.6631 33.002 26.0068 33.875C25.3506 34.7422 24.4688 35.1758 23.3613 35.1758C22.0371 35.1758 21.0352 34.6836 20.3555 33.6992L20.3115 35H19.3271V21.5H20.373V26.8701C21.041 25.833 22.0312 25.3145 23.3438 25.3145C24.4688 25.3145 25.3564 25.7451 26.0068 26.6064C26.6631 27.4619 26.9912 28.6543 26.9912 30.1836V30.3418ZM25.9365 30.1572C25.9365 28.9033 25.6934 27.9365 25.207 27.2568C24.7207 26.5713 24.0352 26.2285 23.1504 26.2285C22.4766 26.2285 21.9053 26.3955 21.4365 26.7295C20.9678 27.0576 20.6133 27.541 20.373 28.1797V32.4688C20.9004 33.6641 21.832 34.2617 23.168 34.2617C24.0352 34.2617 24.7119 33.9189 25.1982 33.2334C25.6904 32.5479 25.9365 31.5225 25.9365 30.1572ZM28.7402 30.1045C28.7402 29.1904 28.916 28.3672 29.2676 27.6348C29.625 26.9023 30.126 26.334 30.7705 25.9297C31.4209 25.5195 32.1562 25.3145 32.9766 25.3145C34.2422 25.3145 35.2676 25.7598 36.0527 26.6504C36.8379 27.5352 37.2305 28.71 37.2305 30.1748V30.3945C37.2305 31.3145 37.0518 32.1436 36.6943 32.8818C36.3428 33.6143 35.8447 34.1797 35.2002 34.5781C34.5557 34.9766 33.8203 35.1758 32.9941 35.1758C31.7344 35.1758 30.709 34.7334 29.918 33.8486C29.1328 32.958 28.7402 31.7803 28.7402 30.3154V30.1045ZM29.7949 30.3945C29.7949 31.5312 30.0879 32.4658 30.6738 33.1982C31.2656 33.9248 32.0391 34.2881 32.9941 34.2881C33.9434 34.2881 34.7109 33.9248 35.2969 33.1982C35.8887 32.4658 36.1846 31.502 36.1846 30.3066V30.1045C36.1846 29.3779 36.0498 28.7129 35.7803 28.1094C35.5107 27.5059 35.1328 27.04 34.6465 26.7119C34.1602 26.3779 33.6035 26.2109 32.9766 26.2109C32.0391 26.2109 31.2744 26.5801 30.6826 27.3184C30.0908 28.0508 29.7949 29.0117 29.7949 30.2012V30.3945ZM38.9883 30.1572C38.9883 28.6807 39.3164 27.5059 39.9727 26.6328C40.6348 25.7539 41.5312 25.3145 42.6621 25.3145C43.9453 25.3145 44.9238 25.8213 45.5977 26.835V21.5H46.6436V35H45.6592L45.6152 33.7344C44.9414 34.6953 43.9512 35.1758 42.6445 35.1758C41.5488 35.1758 40.6641 34.7363 39.9902 33.8574C39.3223 32.9727 38.9883 31.7803 38.9883 30.2803V30.1572ZM40.0518 30.3418C40.0518 31.5547 40.2949 32.5127 40.7812 33.2158C41.2676 33.9131 41.9531 34.2617 42.8379 34.2617C44.1328 34.2617 45.0527 33.6904 45.5977 32.5479V28.083C45.0527 26.8467 44.1387 26.2285 42.8555 26.2285C41.9707 26.2285 41.2822 26.5771 40.79 27.2744C40.2979 27.9658 40.0518 28.9883 40.0518 30.3418ZM52.4268 33.4883L55.2041 25.4902H56.3379L52.2773 36.6172L52.0664 37.1094C51.5449 38.2637 50.7393 38.8408 49.6494 38.8408C49.3975 38.8408 49.1279 38.7998 48.8408 38.7178L48.832 37.8477L49.377 37.9004C49.8926 37.9004 50.3086 37.7715 50.625 37.5137C50.9473 37.2617 51.2197 36.8252 51.4424 36.2041L51.9082 34.9209L48.3223 25.4902H49.4736L52.4268 33.4883ZM63.9404 29.208L57.6914 26.5449V25.4639L65.1182 28.7861V29.6387L57.6914 32.9697V31.8799L63.9404 29.208Z" fill="black"/>
</svg>
